Coordinates
version=1
nRows=20
nColumns=38
inDegrees=no

Units are S.I. units (second, meters, Newtons, ...)
If the header above contains a line with 'inDegrees', this indicates whether rotational values are in degrees (yes) or radians (no).

endheader
time	pelvis_tilt	pelvis_list	pelvis_rotation	pelvis_tx	pelvis_ty	pelvis_tz	hip_flexion_r	hip_adduction_r	hip_rotation_r	knee_angle_r	ankle_angle_r	subtalar_angle_r	mtp_angle_r	hip_flexion_l	hip_adduction_l	hip_rotation_l	knee_angle_l	ankle_angle_l	subtalar_angle_l	mtp_angle_l	lumbar_extension	lumbar_bending	lumbar_rotation	arm_flex_r	arm_add_r	arm_rot_r	elbow_flex_r	pro_sup_r	wrist_flex_r	wrist_dev_r	arm_flex_l	arm_add_l	arm_rot_l	elbow_flex_l	pro_sup_l	wrist_flex_l	wrist_dev_l
40	2.95955	1.41748	-1.28318	0.618709	-0.059738	0.950158	-0.141824	0.012318	-0.121596	0.191944	-0.419877	0	0	-0.231648	-0.0500233	0.0364178	0.038853	-0.412053	0	0	-0.249596	0.0780303	-0.267265	0.426252	-0.300711	1.12771	0.490375	0.914641	0	0	0.00991903	-0.417611	0.494474	0.764535	1.1818	0	0
40.01	2.96212	1.41703	-1.28542	0.618644	-0.0594374	0.950124	-0.142425	0.0128236	-0.120575	0.19316	-0.41864	0	0	-0.232069	-0.0498748	0.0367692	0.0397942	-0.41099	0	0	-0.248983	0.0780119	-0.267394	0.425488	-0.300357	1.12543	0.490555	0.91729	0	0	0.00907439	-0.417081	0.491739	0.764963	1.18292	0	0
40.02	2.96522	1.41615	-1.28827	0.618576	-0.0591163	0.95015	-0.14372	0.0125132	-0.120307	0.193526	-0.418275	0	0	-0.233239	-0.0496552	0.0370973	0.0404456	-0.410484	0	0	-0.248814	0.0780926	-0.267443	0.424774	-0.300036	1.12295	0.490517	0.920204	0	0	0.00834636	-0.41664	0.489464	0.765259	1.18431	0	0
40.03	2.96743	1.4152	-1.2904	0.618513	-0.0587835	0.950192	-0.145219	0.0122497	-0.120218	0.193385	-0.418071	0	0	-0.234657	-0.0494821	0.0372011	0.0406846	-0.410177	0	0	-0.248755	0.0783512	-0.267272	0.42405	-0.299745	1.12021	0.490309	0.923466	0	0	0.00794277	-0.416087	0.487087	0.765431	1.18453	0	0
40.04	2.96894	1.41423	-1.29192	0.618449	-0.0584594	0.950219	-0.146713	0.0122402	-0.1204	0.193304	-0.417659	0	0	-0.236179	-0.0493809	0.0370183	0.0406827	-0.409894	0	0	-0.248707	0.0787158	-0.266984	0.42333	-0.299452	1.11684	0.490027	0.926861	0	0	0.00764299	-0.415732	0.48533	0.765569	1.1855	0	0
40.05	2.96997	1.41328	-1.29301	0.618387	-0.0581649	0.950224	-0.148131	0.0124886	-0.120546	0.193342	-0.417073	0	0	-0.237802	-0.0493242	0.0367236	0.0403268	-0.409734	0	0	-0.248664	0.0791492	-0.266656	0.422728	-0.299129	1.11308	0.489551	0.930604	0	0	0.00734054	-0.415567	0.484356	0.76563	1.18692	0	0
40.06	2.97039	1.41249	-1.2936	0.618326	-0.0578756	0.950223	-0.149233	0.0129159	-0.12059	0.19363	-0.41653	0	0	-0.239446	-0.0492754	0.0366205	0.0394804	-0.409686	0	0	-0.248438	0.079623	-0.266384	0.422152	-0.298857	1.10929	0.489018	0.935148	0	0	0.00717225	-0.415453	0.483826	0.765563	1.1875	0	0
40.07	2.97085	1.41189	-1.29441	0.618294	-0.0575745	0.950216	-0.15016	0.0128959	-0.120584	0.193587	-0.416299	0	0	-0.240945	-0.0491684	0.0366441	0.0386279	-0.409511	0	0	-0.248036	0.0799839	-0.265915	0.421484	-0.298584	1.10515	0.488418	0.940468	0	0	0.0072847	-0.415375	0.483798	0.765282	1.18745	0	0
40.08	2.97139	1.41129	-1.29532	0.618268	-0.0573078	0.95022	-0.150924	0.0125266	-0.120658	0.193732	-0.416055	0	0	-0.242287	-0.0491164	0.0367328	0.0379718	-0.40943	0	0	-0.247851	0.0803235	-0.265253	0.420853	-0.298309	1.10062	0.487779	0.946485	0	0	0.00782943	-0.415387	0.484351	0.76479	1.18716	0	0
40.09	2.9726	1.41101	-1.29686	0.618267	-0.0570492	0.950209	-0.151153	0.0124292	-0.120621	0.19456	-0.415478	0	0	-0.243091	-0.048984	0.0367155	0.0376607	-0.409388	0	0	-0.247447	0.0804069	-0.264613	0.420071	-0.297923	1.09519	0.487116	0.952582	0	0	0.00846402	-0.415587	0.485232	0.764281	1.18668	0	0
40.1	2.97426	1.41096	-1.2987	0.618255	-0.0567744	0.950183	-0.151191	0.0121039	-0.120976	0.195291	-0.415125	0	0	-0.243503	-0.0487738	0.0366756	0.0377949	-0.4091	0	0	-0.246819	0.0803144	-0.264226	0.419073	-0.297462	1.08955	0.486478	0.959397	0	0	0.00907182	-0.41588	0.486234	0.76363	1.18594	0	0
40.11	2.97646	1.4111	-1.30066	0.618218	-0.0564732	0.950146	-0.151456	0.0115971	-0.121721	0.195146	-0.414921	0	0	-0.2436	-0.0484738	0.0369602	0.0382411	-0.408665	0	0	-0.246015	0.0800704	-0.264189	0.417724	-0.29706	1.08349	0.486049	0.967013	0	0	0.00966141	-0.416329	0.487309	0.763092	1.18513	0	0
40.12	2.97761	1.41077	-1.30187	0.618197	-0.0562212	0.950154	-0.151881	0.0116896	-0.121817	0.19566	-0.414477	0	0	-0.244241	-0.0483419	0.0369949	0.0384409	-0.408464	0	0	-0.24587	0.08015	-0.263741	0.416513	-0.296668	1.07675	0.485563	0.975266	0	0	0.0103274	-0.41685	0.488599	0.762667	1.18486	0	0
40.13	2.97795	1.41039	-1.30233	0.618152	-0.0559997	0.950184	-0.152501	0.0119317	-0.121478	0.195708	-0.414179	0	0	-0.244921	-0.0482752	0.0371203	0.0385009	-0.408384	0	0	-0.245768	0.0804273	-0.263362	0.415336	-0.29608	1.06898	0.484826	0.983973	0	0	0.0110488	-0.417059	0.489332	0.762054	1.18314	0	0
40.14	2.98051	1.40824	-1.30499	0.618085	-0.0558523	0.950274	-0.155122	0.0121403	-0.121564	0.195574	-0.413784	0	0	-0.247717	-0.0482887	0.0368997	0.0381252	-0.408036	0	0	-0.246618	0.08152	-0.267762	0.432945	-0.299929	1.13944	0.486261	0.905511	0	0	0.00663042	-0.416407	0.480258	0.762453	1.18692	0	0
40.15	2.98131	1.40795	-1.30586	0.618041	-0.0556247	0.950276	-0.155726	0.0120785	-0.121555	0.195614	-0.413503	0	0	-0.248377	-0.0481265	0.0367727	0.0381539	-0.407765	0	0	-0.2463	0.0816837	-0.268106	0.433489	-0.299784	1.13917	0.485723	0.906453	0	0	0.00622585	-0.41654	0.479436	0.761978	1.18724	0	0
40.16	2.98221	1.40784	-1.30687	0.617996	-0.0553998	0.950255	-0.156107	0.0117616	-0.121559	0.195672	-0.413225	0	0	-0.248855	-0.0478923	0.0367451	0.0381681	-0.407517	0	0	-0.245777	0.0817394	-0.268635	0.434012	-0.29961	1.13914	0.485242	0.907589	0	0	0.00573417	-0.416558	0.478113	0.76151	1.18625	0	0
40.17	2.98277	1.40771	-1.30775	0.61796	-0.0552053	0.950232	-0.156334	0.0113791	-0.121264	0.195886	-0.41283	0	0	-0.249382	-0.047657	0.0365823	0.0380647	-0.407372	0	0	-0.245314	0.0818723	-0.269027	0.434657	-0.299432	1.13899	0.48481	0.908733	0	0	0.0052587	-0.416565	0.476973	0.760995	1.1857	0	0
40.18	2.98221	1.40746	-1.30772	0.61793	-0.0550581	0.950239	-0.156334	0.0116132	-0.120521	0.196675	-0.41213	0	0	-0.249993	-0.0475935	0.0363315	0.0378293	-0.407285	0	0	-0.245104	0.0822651	-0.269147	0.435432	-0.299454	1.13863	0.484632	0.909817	0	0	0.00496418	-0.416517	0.476136	0.760376	1.18548	0	0
40.19	2.98199	1.40756	-1.30763	0.617898	-0.0548926	0.95022	-0.155876	0.0116521	-0.120606	0.19787	-0.411423	0	0	-0.25014	-0.0475707	0.0364202	0.0377205	-0.407156	0	0	-0.244466	0.0824321	-0.269634	0.435848	-0.299582	1.13801	0.484649	0.910716	0	0	0.00466505	-0.416626	0.475623	0.759725	1.1852	0	0
